<svg viewBox="0 0 28 28" xmlns="http://www.w3.org/2000/svg" xmlns:xlink="http://www.w3.org/1999/xlink" width="28.000000" height="28.000000" fill="none" customFrame="#000000">
	<rect id="play" width="28.000000" height="28.000000" x="0.000000" y="0.000000" />
	<path id="矢量 65" d="M6.14695 4.66408C6.35256 4.30872 6.6483 4.0139 7.00429 3.80939C7.36029 3.60488 7.76395 3.49792 8.17451 3.49931C8.58506 3.50071 8.98798 3.6104 9.34258 3.81732L23.3391 11.9817C23.6923 12.1866 23.9856 12.4807 24.1895 12.8345C24.3935 13.1883 24.501 13.5894 24.5014 13.9978C24.5017 14.4062 24.3949 14.8075 24.1915 15.1617C23.9882 15.5158 23.6955 15.8104 23.3426 16.016L9.34258 24.1827C8.98798 24.3896 8.58506 24.4993 8.17451 24.5007C7.76395 24.5021 7.36029 24.3951 7.00429 24.1906C6.6483 23.9861 6.35256 23.6913 6.14695 23.3359C5.94134 22.9805 5.83313 22.5772 5.83325 22.1667L5.83325 5.83332C5.83313 5.42276 5.94134 5.01944 6.14695 4.66408Z" fill-rule="nonzero" stroke="rgb(79,142,247)" stroke-linecap="round" stroke-linejoin="round" stroke-width="2.333333" />
</svg>
